<?xml version="1.0" encoding="UTF-8" standalone="no"?>
<!DOCTYPE svg PUBLIC "-//W3C//DTD SVG 1.1//EN" "http://www.w3.org/Graphics/SVG/1.1/DTD/svg11.dtd">
<svg width="100%" height="100%" viewBox="0 0 272 314" version="1.1" xmlns="http://www.w3.org/2000/svg" xmlns:xlink="http://www.w3.org/1999/xlink" xml:space="preserve" xmlns:serif="http://www.serif.com/" style="fill-rule:evenodd;clip-rule:evenodd;stroke-linejoin:round;stroke-miterlimit:2;">
    <g transform="matrix(1,0,0,1,-4163.03,-3801.09)">
        <g transform="matrix(0.784557,0,0,1.27226,3523.56,-1007.92)">
            <g transform="matrix(1.2746,0,0,0.786,-4491.14,792.228)">
                <path fill="white" d="M4163.03,4036.59L4163.03,3879.59L4299,3801.09L4434.97,3879.59L4434.97,4036.59L4299,4115.09L4163.03,4036.59ZM4402.15,3946.15L4402.15,3911.89L4298.33,3971.83L4298.33,3972.03L4298.16,3971.93L4297.98,3972.03L4297.98,3971.83L4197.77,3913.25L4197.77,3954.41L4293,4009.39L4293,4032.49L4197.77,3977.5L4197.77,4014.64L4299.96,4073.64L4329,4056.88L4329,4011.7L4293,4032.49L4293,4009.39L4345,3979.37L4345,4047.64L4369.19,4033.67L4369.19,3965.94L4369.2,3965.94L4369.19,3965.18L4402.15,3946.15ZM4402.15,3969.25L4385.19,3979.04L4385.19,4024.43L4402.15,4014.64L4402.15,3969.25ZM4259.55,3925.58L4299,3948.35L4345.65,3921.42L4306.45,3898.5L4259.55,3925.58ZM4203.6,3893.27L4239.55,3914.03L4286.57,3886.88L4250.85,3866L4203.6,3893.27ZM4270.97,3854.38L4366.36,3909.46L4395.36,3892.72L4299.96,3837.64L4270.97,3854.38Z"/>
            </g>
        </g>
    </g>
</svg>
